<svg xmlns="http://www.w3.org/2000/svg" viewBox="0 0 900 520" role="img" aria-label="Security illustration">
  <defs>
    <linearGradient id="b" x1="0" y1="0" x2="1" y2="1">
      <stop offset="0%" stop-color="#22A7E0" />
      <stop offset="100%" stop-color="#123847" />
    </linearGradient>
    <filter id="s" x="-20%" y="-20%" width="140%" height="160%">
      <feDropShadow dx="0" dy="18" stdDeviation="14" flood-color="#061b2b" flood-opacity="0.20" />
    </filter>
  </defs>
  <rect width="900" height="520" rx="26" fill="#F8FCFF" />
  <g filter="url(#s)">
    <rect x="72" y="92" width="756" height="316" rx="22" fill="#FFFFFF" stroke="rgba(18, 56, 71, 0.12)" stroke-width="2" />
  </g>
  <rect x="112" y="132" width="260" height="16" rx="8" fill="rgba(18, 56, 71, 0.18)" />
  <rect x="112" y="164" width="360" height="12" rx="6" fill="rgba(18, 56, 71, 0.10)" />
  <g>
    <path d="M450 210 C520 242, 596 246, 676 210 V286 C676 352, 580 398, 450 440 C320 398, 224 352, 224 286 V210 C304 246, 380 242, 450 210 Z" fill="url(#b)" opacity="0.92" />
    <path d="M450 252 C495 276, 540 278, 592 252 V284 C592 322, 538 350, 450 378 C362 350, 308 322, 308 284 V252 C360 278, 405 276, 450 252 Z" fill="rgba(255,255,255,0.16)" />
    <rect x="420" y="298" width="60" height="70" rx="14" fill="#FFFFFF" opacity="0.95" />
    <path d="M432 298 v-12 c0-20 16-36 36-36 s36 16 36 36 v12" fill="none" stroke="#123847" stroke-width="8" stroke-linecap="round" opacity="0.95" />
    <circle cx="450" cy="332" r="9" fill="#123847" opacity="0.95" />
  </g>
  <rect x="112" y="420" width="240" height="14" rx="7" fill="rgba(34, 167, 224, 0.35)" />
  <rect x="112" y="446" width="330" height="14" rx="7" fill="rgba(18, 56, 71, 0.12)" />
</svg>

