<svg xmlns="http://www.w3.org/2000/svg" viewBox="0 0 900 520" role="img" aria-label="Automation illustration">
  <defs>
    <linearGradient id="a" x1="0" y1="0" x2="1" y2="1">
      <stop offset="0%" stop-color="#33B9EE" />
      <stop offset="100%" stop-color="#178DC8" />
    </linearGradient>
    <filter id="s" x="-20%" y="-20%" width="140%" height="160%">
      <feDropShadow dx="0" dy="18" stdDeviation="14" flood-color="#061b2b" flood-opacity="0.20" />
    </filter>
  </defs>
  <rect width="900" height="520" rx="26" fill="#F3FAFF" />
  <g opacity="0.18">
    <path d="M60 420 C160 340, 210 470, 320 390 S 520 390, 640 320 S 790 320, 860 250" fill="none" stroke="#22A7E0" stroke-width="10" stroke-linecap="round" />
  </g>
  <g filter="url(#s)">
    <rect x="70" y="86" width="760" height="330" rx="22" fill="#FFFFFF" stroke="rgba(18, 56, 71, 0.12)" stroke-width="2" />
  </g>
  <rect x="110" y="128" width="220" height="16" rx="8" fill="rgba(18, 56, 71, 0.18)" />
  <rect x="110" y="160" width="320" height="12" rx="6" fill="rgba(18, 56, 71, 0.10)" />
  <rect x="110" y="220" width="300" height="110" rx="18" fill="rgba(34, 167, 224, 0.10)" />
  <rect x="440" y="220" width="350" height="110" rx="18" fill="rgba(18, 56, 71, 0.06)" />
  <rect x="110" y="350" width="680" height="18" rx="9" fill="rgba(18, 56, 71, 0.08)" />
  <g>
    <circle cx="170" cy="276" r="26" fill="url(#a)" />
    <path d="M158 276 l9 9 l18 -22" fill="none" stroke="#FFFFFF" stroke-width="6" stroke-linecap="round" stroke-linejoin="round" />
    <circle cx="520" cy="276" r="26" fill="rgba(18, 56, 71, 0.14)" />
    <circle cx="620" cy="276" r="26" fill="rgba(18, 56, 71, 0.14)" />
    <circle cx="720" cy="276" r="26" fill="rgba(18, 56, 71, 0.14)" />
    <path d="M196 276 H494" stroke="rgba(34, 167, 224, 0.55)" stroke-width="8" stroke-linecap="round" />
    <path d="M546 276 H594" stroke="rgba(18, 56, 71, 0.18)" stroke-width="8" stroke-linecap="round" />
    <path d="M646 276 H694" stroke="rgba(18, 56, 71, 0.18)" stroke-width="8" stroke-linecap="round" />
  </g>
  <rect x="110" y="386" width="220" height="14" rx="7" fill="url(#a)" opacity="0.9" />
</svg>

