<svg xmlns="http://www.w3.org/2000/svg" viewBox="0 0 1200 760" role="img" aria-label="Professional Labs dashboard preview">
  <defs>
    <linearGradient id="plAccent" x1="0" y1="0" x2="1" y2="1">
      <stop offset="0%" stop-color="#33B9EE" />
      <stop offset="55%" stop-color="#22A7E0" />
      <stop offset="100%" stop-color="#178DC8" />
    </linearGradient>
    <filter id="shadow" x="-20%" y="-20%" width="140%" height="160%">
      <feDropShadow dx="0" dy="22" stdDeviation="18" flood-color="#061b2b" flood-opacity="0.22" />
    </filter>
    <filter id="soft" x="-20%" y="-20%" width="140%" height="160%">
      <feDropShadow dx="0" dy="10" stdDeviation="10" flood-color="#123847" flood-opacity="0.12" />
    </filter>
    <clipPath id="panelClip">
      <rect x="70" y="50" width="1060" height="660" rx="28" />
    </clipPath>
  </defs>

  <g filter="url(#shadow)">
    <rect x="70" y="50" width="1060" height="660" rx="28" fill="#FFFFFF" />
    <rect x="70" y="50" width="1060" height="660" rx="28" fill="none" stroke="rgba(18, 56, 71, 0.12)" stroke-width="2" />
  </g>

  <g clip-path="url(#panelClip)">
    <rect x="70" y="50" width="1060" height="78" fill="#F3FAFF" />
    <circle cx="110" cy="88" r="8" fill="#FF6B6B" opacity="0.9" />
    <circle cx="140" cy="88" r="8" fill="#FFD166" opacity="0.9" />
    <circle cx="170" cy="88" r="8" fill="#06D6A0" opacity="0.9" />

    <rect x="70" y="128" width="230" height="582" fill="#F8FCFF" />
    <rect x="98" y="162" width="174" height="14" rx="7" fill="rgba(18, 56, 71, 0.22)" />
    <rect x="98" y="198" width="150" height="10" rx="5" fill="rgba(18, 56, 71, 0.18)" />
    <rect x="98" y="222" width="164" height="10" rx="5" fill="rgba(18, 56, 71, 0.18)" />
    <rect x="98" y="246" width="132" height="10" rx="5" fill="rgba(18, 56, 71, 0.18)" />

    <rect x="92" y="298" width="186" height="44" rx="12" fill="rgba(34, 167, 224, 0.12)" />
    <rect x="112" y="318" width="120" height="10" rx="5" fill="url(#plAccent)" />
    <circle cx="254" cy="320" r="10" fill="url(#plAccent)" opacity="0.9" />

    <rect x="330" y="156" width="770" height="18" rx="9" fill="rgba(18, 56, 71, 0.16)" />
    <rect x="330" y="186" width="520" height="12" rx="6" fill="rgba(18, 56, 71, 0.12)" />

    <g filter="url(#soft)">
      <rect x="330" y="238" width="240" height="130" rx="18" fill="#FFFFFF" />
      <rect x="590" y="238" width="240" height="130" rx="18" fill="#FFFFFF" />
      <rect x="850" y="238" width="250" height="130" rx="18" fill="#FFFFFF" />
    </g>

    <rect x="352" y="260" width="88" height="12" rx="6" fill="rgba(18, 56, 71, 0.16)" />
    <rect x="352" y="288" width="130" height="34" rx="10" fill="rgba(18, 56, 71, 0.08)" />
    <rect x="352" y="334" width="74" height="12" rx="6" fill="url(#plAccent)" opacity="0.95" />

    <rect x="612" y="260" width="96" height="12" rx="6" fill="rgba(18, 56, 71, 0.16)" />
    <rect x="612" y="288" width="140" height="34" rx="10" fill="rgba(18, 56, 71, 0.08)" />
    <rect x="612" y="334" width="88" height="12" rx="6" fill="url(#plAccent)" opacity="0.8" />

    <rect x="872" y="260" width="110" height="12" rx="6" fill="rgba(18, 56, 71, 0.16)" />
    <rect x="872" y="288" width="156" height="34" rx="10" fill="rgba(18, 56, 71, 0.08)" />
    <rect x="872" y="334" width="116" height="12" rx="6" fill="url(#plAccent)" opacity="0.65" />

    <g filter="url(#soft)">
      <rect x="330" y="396" width="770" height="280" rx="22" fill="#FFFFFF" />
    </g>
    <rect x="354" y="422" width="170" height="12" rx="6" fill="rgba(18, 56, 71, 0.16)" />
    <rect x="354" y="446" width="260" height="10" rx="5" fill="rgba(18, 56, 71, 0.10)" />

    <rect x="354" y="492" width="38" height="140" rx="12" fill="rgba(18, 56, 71, 0.08)" />
    <rect x="402" y="522" width="38" height="110" rx="12" fill="rgba(18, 56, 71, 0.08)" />
    <rect x="450" y="548" width="38" height="84" rx="12" fill="rgba(18, 56, 71, 0.08)" />
    <rect x="498" y="474" width="38" height="158" rx="12" fill="url(#plAccent)" opacity="0.9" />
    <rect x="546" y="508" width="38" height="124" rx="12" fill="rgba(18, 56, 71, 0.08)" />
    <rect x="594" y="530" width="38" height="102" rx="12" fill="rgba(18, 56, 71, 0.08)" />

    <path d="M700 616 C760 540, 820 580, 880 520 S 1000 520, 1060 460" fill="none" stroke="url(#plAccent)" stroke-width="10" stroke-linecap="round" />
    <circle cx="700" cy="616" r="8" fill="#22A7E0" />
    <circle cx="880" cy="520" r="8" fill="#22A7E0" />
    <circle cx="1060" cy="460" r="8" fill="#22A7E0" />
  </g>
</svg>

