<svg xmlns="http://www.w3.org/2000/svg" viewBox="0 0 900 520" role="img" aria-label="Integrations illustration">
  <defs>
    <linearGradient id="c" x1="0" y1="0" x2="1" y2="1">
      <stop offset="0%" stop-color="#33B9EE" />
      <stop offset="100%" stop-color="#178DC8" />
    </linearGradient>
  </defs>
  <rect width="900" height="520" rx="26" fill="#F3FAFF" />
  <g opacity="0.22" stroke="#123847" stroke-width="8" stroke-linecap="round">
    <path d="M160 310 L300 220 L450 300 L610 210 L740 290" fill="none" />
    <path d="M300 220 L270 120" fill="none" />
    <path d="M450 300 L420 420" fill="none" />
    <path d="M610 210 L620 120" fill="none" />
  </g>
  <g>
    <circle cx="160" cy="310" r="28" fill="url(#c)" />
    <circle cx="300" cy="220" r="28" fill="rgba(18, 56, 71, 0.16)" />
    <circle cx="450" cy="300" r="28" fill="rgba(18, 56, 71, 0.16)" />
    <circle cx="610" cy="210" r="28" fill="rgba(18, 56, 71, 0.16)" />
    <circle cx="740" cy="290" r="28" fill="url(#c)" />

    <circle cx="270" cy="120" r="22" fill="rgba(34, 167, 224, 0.22)" />
    <circle cx="420" cy="420" r="22" fill="rgba(34, 167, 224, 0.22)" />
    <circle cx="620" cy="120" r="22" fill="rgba(34, 167, 224, 0.22)" />
  </g>
  <g opacity="0.9">
    <rect x="90" y="66" width="280" height="14" rx="7" fill="rgba(18, 56, 71, 0.20)" />
    <rect x="90" y="92" width="380" height="10" rx="5" fill="rgba(18, 56, 71, 0.12)" />
  </g>
</svg>

